<?xml version="1.0" encoding="UTF-8"?>
<svg xmlns="http://www.w3.org/2000/svg" xmlns:xlink="http://www.w3.org/1999/xlink" width="30px" height="30px" viewBox="0 0 30 30" version="1.1">
<g id="surface1">
<path style=" stroke:none;fill-rule:nonzero;fill:rgb(40%,20%,20%);fill-opacity:1;" d="M 27.675781 12.765625 C 28.015625 13.160156 28.15625 13.679688 28.074219 14.1875 C 28.074219 14.195312 28.074219 14.199219 28.070312 14.203125 C 27.757812 16.125 26.855469 17.871094 25.472656 19.25 C 24.734375 19.988281 23.886719 20.589844 22.960938 21.039062 C 22.039062 21.488281 21.042969 21.785156 20.011719 21.910156 C 19.835938 22.273438 19.53125 22.566406 19.152344 22.726562 L 14.199219 24.8125 C 14.019531 24.875 13.847656 24.839844 13.785156 24.816406 C 13.648438 24.757812 13.542969 24.652344 13.488281 24.523438 C 13.117188 23.640625 13.105469 22.695312 13.382812 21.851562 C 11.347656 21.523438 9.484375 20.527344 8.066406 19 C 6.472656 17.277344 5.59375 15.03125 5.59375 12.679688 L 5.59375 9.625 C 5.59375 9.5 5.609375 9.375 5.640625 9.257812 L 4.683594 9.257812 C 3.136719 9.257812 1.878906 8 1.878906 6.453125 L 1.878906 5.703125 C 1.878906 5.402344 2.125 5.160156 2.425781 5.160156 L 4.058594 5.160156 C 5.261719 5.160156 6.355469 5.773438 7 6.722656 C 7.648438 5.773438 8.742188 5.160156 9.941406 5.160156 L 11.578125 5.160156 C 11.878906 5.160156 12.121094 5.402344 12.121094 5.703125 L 12.121094 6.453125 C 12.121094 8 10.867188 9.257812 9.320312 9.257812 L 8.453125 9.257812 C 8.464844 9.289062 8.472656 9.320312 8.476562 9.355469 C 8.78125 10.964844 10.199219 12.136719 11.84375 12.136719 L 26.324219 12.136719 C 26.84375 12.136719 27.335938 12.367188 27.675781 12.765625 Z M 27.675781 12.765625 "/>
<path style=" stroke:none;fill-rule:nonzero;fill:rgb(30.588235%,78.431373%,84.705882%);fill-opacity:1;" d="M 26.847656 13.46875 C 26.894531 13.527344 26.933594 13.585938 26.957031 13.652344 C 23.035156 14.347656 19.902344 17.359375 19.082031 21.289062 C 19.082031 21.296875 19.078125 21.300781 19.078125 21.3125 C 19.039062 21.496094 18.90625 21.652344 18.734375 21.722656 L 14.332031 23.578125 C 14.082031 22.335938 14.734375 21.042969 15.945312 20.53125 C 16.226562 20.414062 16.351562 20.09375 16.234375 19.820312 C 16.117188 19.542969 15.800781 19.414062 15.523438 19.53125 C 14.851562 19.8125 14.300781 20.269531 13.902344 20.828125 C 11.976562 20.597656 10.199219 19.695312 8.867188 18.261719 C 7.457031 16.742188 6.679688 14.761719 6.679688 12.683594 L 6.679688 9.625 C 6.679688 9.523438 6.71875 9.433594 6.785156 9.367188 C 6.855469 9.296875 6.945312 9.257812 7.046875 9.257812 C 7.222656 9.257812 7.375 9.382812 7.40625 9.558594 C 7.808594 11.6875 9.671875 13.226562 11.839844 13.226562 L 26.320312 13.226562 C 26.523438 13.226562 26.714844 13.316406 26.847656 13.46875 Z M 26.847656 13.46875 "/>
<path style=" stroke:none;fill-rule:nonzero;fill:rgb(100%,100%,100%);fill-opacity:1;" d="M 26.835938 14.78125 C 26.46875 16.179688 25.742188 17.445312 24.703125 18.480469 C 23.511719 19.671875 21.980469 20.46875 20.335938 20.757812 C 21.257812 17.734375 23.75 15.449219 26.835938 14.78125 Z M 26.835938 14.78125 "/>
<path style=" stroke:none;fill-rule:nonzero;fill:rgb(40%,20%,20%);fill-opacity:1;" d="M 26.027344 8.785156 C 26.027344 9.085938 25.785156 9.332031 25.484375 9.332031 C 25.179688 9.332031 24.9375 9.085938 24.9375 8.785156 C 24.9375 8.222656 24.480469 7.765625 23.917969 7.765625 C 23.359375 7.765625 22.902344 8.222656 22.902344 8.78125 L 22.902344 10.660156 C 22.902344 10.960938 22.65625 11.207031 22.355469 11.207031 C 22.054688 11.207031 21.8125 10.960938 21.8125 10.660156 C 21.8125 10.660156 21.8125 8.738281 21.8125 8.714844 L 21.808594 8.714844 C 21.773438 8.1875 21.332031 7.765625 20.792969 7.765625 C 20.230469 7.765625 19.773438 8.222656 19.773438 8.785156 C 19.773438 9.089844 19.527344 9.332031 19.226562 9.332031 C 18.925781 9.332031 18.683594 9.089844 18.683594 8.785156 C 18.683594 7.625 19.628906 6.679688 20.789062 6.679688 C 21.410156 6.679688 21.964844 6.949219 22.351562 7.375 C 22.738281 6.945312 23.296875 6.679688 23.914062 6.679688 C 25.082031 6.679688 26.027344 7.625 26.027344 8.785156 Z M 19.613281 14.40625 C 19.972656 14.40625 20.261719 14.699219 20.261719 15.054688 C 20.261719 15.414062 19.972656 15.703125 19.613281 15.703125 C 19.257812 15.703125 18.96875 15.414062 18.96875 15.054688 C 18.96875 14.699219 19.257812 14.40625 19.613281 14.40625 Z M 12.722656 17.898438 C 13 18.015625 13.132812 18.335938 13.019531 18.613281 C 12.933594 18.824219 12.730469 18.949219 12.515625 18.949219 C 12.445312 18.949219 12.375 18.933594 12.308594 18.90625 C 11.40625 18.535156 10.613281 17.984375 9.945312 17.261719 C 9.511719 16.796875 9.152344 16.28125 8.867188 15.71875 C 8.734375 15.449219 8.84375 15.121094 9.109375 14.984375 C 9.378906 14.851562 9.703125 14.957031 9.839844 15.226562 C 10.078125 15.695312 10.382812 16.128906 10.742188 16.519531 C 11.304688 17.125 11.96875 17.585938 12.722656 17.898438 Z M 12.722656 17.898438 "/>
<path style=" stroke:none;fill-rule:nonzero;fill:rgb(30.588235%,78.431373%,84.705882%);fill-opacity:1;" d="M 11.03125 6.25 L 11.03125 6.453125 C 11.03125 7.402344 10.265625 8.167969 9.320312 8.167969 L 7.539062 8.167969 C 7.789062 7.054688 8.796875 6.25 9.941406 6.25 Z M 6.460938 8.167969 L 4.679688 8.167969 C 3.734375 8.167969 2.96875 7.402344 2.96875 6.453125 L 2.96875 6.25 L 4.058594 6.25 C 5.207031 6.25 6.214844 7.054688 6.460938 8.167969 Z M 6.460938 8.167969 "/>
</g>
</svg>
